<?xml version="1.0" standalone="no"?>
<!DOCTYPE svg PUBLIC "-//W3C//DTD SVG 20010904//EN"
 "http://www.w3.org/TR/2001/REC-SVG-20010904/DTD/svg10.dtd">
<svg version="1.0" xmlns="http://www.w3.org/2000/svg"
 width="700pt" height="700pt" viewBox="0 0 700 700"
 preserveAspectRatio="xMidYMid meet">
<g transform="translate(0,700) scale(0.1,-0.1)"
fill="#000000" stroke="none">
<path d="M2 4579 l3 -2421 235 -145 c129 -80 247 -153 262 -162 15 -9 81 -50
148 -91 67 -41 133 -82 148 -91 15 -9 113 -69 217 -134 105 -65 235 -146 290
-180 55 -34 379 -234 720 -445 341 -210 668 -413 727 -449 59 -36 191 -118
293 -181 102 -63 193 -119 203 -125 9 -5 70 -43 134 -83 l118 -73 527 325
c291 179 535 331 543 336 27 18 673 418 760 470 47 28 186 114 310 191 124 77
295 183 380 235 85 53 184 114 220 136 36 22 221 137 413 255 l347 215 0 2419
0 2419 -3500 0 -3500 0 2 -2421z"/>
</g>
</svg>
